# xmcd
#
# Track frame offsets:
#	150
#	11800
#	27956
#	50813
#	61344
#	81902
#	96776
#	103896
#	115335
#	135172
#	155291
#	169166
#	180218
#
# Disc length: 2610 seconds
#
# Revision: 655373
# Processed by: cddbd v1.5.2PL0 Copyright (c) Steve Scherf et al.
# Submitted via: EZCDAudioConverter 7.0.0.1
#
DISCID=a20a300d
DTITLE=Pappo's Blues - Refrito
DYEAR=2006
DGENRE=Blues
TTITLE0=El Tren De Las 16
TTITLE1=Insoluble
TTITLE2=Gato En La Calle Negra (Pappo, Tony Gibson)
TTITLE3=Hombre Suburbano
TTITLE4=Sucio Y Desprolijo
TTITLE5=Abelardo El Pollo
TTITLE6=Adios Willy
TTITLE7=Fiesta Cervezal
TTITLE8=Algo Ha Cambiado
TTITLE9=Especies
TTITLE10=Con Elvira Es Otra Cosa
TTITLE11=El Viejo
TTITLE12=Llegara La Paz
EXTD=
EXTT0=
EXTT1=
EXTT2=
EXTT3=
EXTT4=
EXTT5=
EXTT6=
EXTT7=
EXTT8=
EXTT9=
EXTT10=
EXTT11=
EXTT12=
PLAYORDER=
